{
    "asset" : {
        "generator" : "Khronos glTF Blender I/O v1.3.48",
        "version" : "2.0"
    },
    "scene" : 0,
    "scenes" : [
        {
            "name" : "Scene",
            "nodes" : [
                0,
                1,
                4,
                5
            ]
        }
    ],
    "nodes" : [
        {
            "name" : "Light",
            "rotation" : [
                0.16907575726509094,
                0.7558803558349609,
                -0.27217137813568115,
                0.570947527885437
            ],
            "scale" : [
                0.05708605423569679,
                0.05708606168627739,
                0.0570860356092453
            ],
            "translation" : [
                0.08024687319993973,
                0.09433665871620178,
                -0.030949998646974564
            ]
        },
        {
            "name" : "Camera",
            "rotation" : [
                0.5859162211418152,
                -0.12664912641048431,
                0.13130421936511993,
                0.7895703911781311
            ],
            "scale" : [
                0.07310641556978226,
                0.07310640811920166,
                0.07310642302036285
            ],
            "translation" : [
                -0.13923440873622894,
                0.037067096680402756,
                0.1156691312789917
            ]
        },
        {
            "mesh" : 0,
            "name" : "0"
        },
        {
            "mesh" : 1,
            "name" : "0.001"
        },
        {
            "children" : [
                2,
                3
            ],
            "name" : "Box58",
            "scale" : [
                0.0005708604003302753,
                0.0005708604003302753,
                0.0005708604003302753
            ],
            "translation" : [
                -0.0021404894068837166,
                0.02104523777961731,
                -6.1765313148498535e-06
            ]
        },
        {
            "name" : "Empty",
            "scale" : [
                0.2854301333427429,
                0.2854301333427429,
                0.2854301333427429
            ],
            "translation" : [
                -0.00043018069118261337,
                -0.005465231835842133,
                -0.0013781562447547913
            ]
        }
    ],
    "materials" : [
        {
            "doubleSided" : true,
            "emissiveFactor" : [
                0,
                0,
                0
            ],
            "name" : "BETON",
            "pbrMetallicRoughness" : {
                "baseColorTexture" : {
                    "index" : 0,
                    "texCoord" : 0
                },
                "metallicFactor" : 0.06818179786205292,
                "roughnessFactor" : 1
            }
        },
        {
            "doubleSided" : true,
            "emissiveFactor" : [
                0,
                0,
                0
            ],
            "name" : "ZLOTO",
            "bumpMap" : {
                "index" : 1,
                "texCoord" : 0
            },
            "pbrMetallicRoughness" : {
                "baseColorFactor" : [
                    0.8045216202735901,
                    0.8627451658248901,
                    0.022032447159290314,
                    1
                ],
                "metallicFactor" : 0.3106060326099396,
                "roughnessFactor" : 0
            }
        }
    ],
    "meshes" : [
        {
            "name" : "Mesh",
            "primitives" : [
                {
                    "attributes" : {
                        "POSITION" : 0,
                        "NORMAL" : 1,
                        "TEXCOORD_0" : 2
                    },
                    "indices" : 3,
                    "material" : 0
                }
            ]
        },
        {
            "name" : "Mesh.001",
            "primitives" : [
                {
                    "attributes" : {
                        "POSITION" : 4,
                        "NORMAL" : 5,
                        "TEXCOORD_0" : 6
                    },
                    "indices" : 7,
                    "material" : 1
                }
            ]
        }
    ],
    "textures" : [
        {
            "source" : 0
        },
        {
            "source" : 1
        }
    ],
    "images" : [
        {
            "bufferView" : 4,
            "mimeType" : "image/jpeg",
            "name" : "GRAFIT"
        },
        {
            "bufferView" : 9,
            "mimeType" : "image/png",
            "name" : "noiseTexture"
        }
    ],
    "accessors" : [
        {
            "bufferView" : 0,
            "componentType" : 5126,
            "count" : 132,
            "max" : [
                90,
                5,
                45
            ],
            "min" : [
                -90,
                0,
                -45
            ],
            "type" : "VEC3"
        },
        {
            "bufferView" : 1,
            "componentType" : 5126,
            "count" : 132,
            "type" : "VEC3"
        },
        {
            "bufferView" : 2,
            "componentType" : 5126,
            "count" : 132,
            "type" : "VEC2"
        },
        {
            "bufferView" : 3,
            "componentType" : 5123,
            "count" : 132,
            "type" : "SCALAR"
        },
        {
            "bufferView" : 5,
            "componentType" : 5126,
            "count" : 5448,
            "max" : [
                90.05000305175781,
                3,
                45.04999923706055
            ],
            "min" : [
                -90.05000305175781,
                -69,
                -45.04999923706055
            ],
            "type" : "VEC3"
        },
        {
            "bufferView" : 6,
            "componentType" : 5126,
            "count" : 5448,
            "type" : "VEC3"
        },
        {
            "bufferView" : 7,
            "componentType" : 5126,
            "count" : 5448,
            "type" : "VEC2"
        },
        {
            "bufferView" : 8,
            "componentType" : 5123,
            "count" : 5448,
            "type" : "SCALAR"
        }
    ],
    "bufferViews" : [
        {
            "buffer" : 0,
            "byteLength" : 1584,
            "byteOffset" : 0
        },
        {
            "buffer" : 0,
            "byteLength" : 1584,
            "byteOffset" : 1584
        },
        {
            "buffer" : 0,
            "byteLength" : 1056,
            "byteOffset" : 3168
        },
        {
            "buffer" : 0,
            "byteLength" : 264,
            "byteOffset" : 4224
        },
        {
            "buffer" : 0,
            "byteLength" : 313969,
            "byteOffset" : 4488
        },
        {
            "buffer" : 0,
            "byteLength" : 65376,
            "byteOffset" : 318460
        },
        {
            "buffer" : 0,
            "byteLength" : 65376,
            "byteOffset" : 383836
        },
        {
            "buffer" : 0,
            "byteLength" : 43584,
            "byteOffset" : 449212
        },
        {
            "buffer" : 0,
            "byteLength" : 10896,
            "byteOffset" : 492796
        },
        {
            "buffer" : 0,
            "byteLength" : 169708,
            "byteOffset" : 503692
        }
    ],
    "buffers" : [
        {
            "byteLength" : 673400,
            "uri" : "data:application/octet-stream;base64,"
        }
    ]
}
