# Blender v2.90.1 OBJ File: 'untitled.blend'
# www.blender.org
mtllib untitled.mtl
o Cube_Cube.001
v -1.000000 -1.000000 1.000000
v -1.000000 -1.000000 -1.000000
v 1.000000 -1.000000 1.000000
v -1.000000 2.000000 -1.000000
v 1.000000 2.000000 1.000000
v 1.000000 2.000000 3.000000
v -3.000000 1.000000 1.000000
v 1.000000 1.000000 -1.000000
v -1.000000 1.000000 -4.000000
v -1.000000 1.000000 1.000000
v 1.000000 1.000000 1.000000
v 1.000000 -1.000000 -1.000000
v 1.000000 2.000000 -1.000000
v 1.000000 1.000000 3.000000
v -1.000000 1.000000 3.000000
v -1.000000 2.000000 3.000000
v -3.000000 2.000000 1.000000
v -3.000000 1.000000 3.000000
v -3.000000 2.000000 3.000000
v 1.000000 1.000000 -4.000000
v 1.000000 1.000000 -3.000000
v -1.000000 1.000000 -3.000000
v -1.000000 -1.000000 -4.000000
v 1.000000 -1.000000 -4.000000
v -1.000000 -1.000000 -3.000000
v 1.000000 -1.000000 -3.000000
v 5.000000 2.000000 -1.000000
v 5.000000 1.000000 -1.000000
v -1.000000 4.000000 1.000000
v 1.000000 4.000000 -1.000000
v -1.000000 3.000000 3.000000
v -1.000000 3.823774 1.000000
v -3.000000 3.000000 3.000000
v -3.000000 3.000000 1.000000
v 2.000000 1.000000 -1.000000
v 2.000000 1.000000 1.000000
v 2.000000 2.000000 -1.000000
v -1.000000 1.000000 5.000000
v -1.000000 2.000000 5.000000
v -3.000000 1.000000 5.000000
v -3.000000 2.000000 5.000000
v -1.000000 2.000000 1.000000
v -1.000000 1.000000 -1.000000
v -1.000000 2.000000 -4.000000
v 1.000000 2.000000 -4.000000
v 5.000000 2.000000 -4.000000
v 5.000000 1.000000 -4.000000
v -1.000000 4.000000 -1.000000
v 1.000000 4.000000 1.000000
v 2.000000 2.000000 1.000000
v -1.000000 1.176786 -1.000000
v -1.000000 1.176786 -4.000000
v -1.000000 1.000000 -2.012801
v -1.000000 1.176786 -2.012801
v -4.229840 1.000000 -2.012801
v -4.229840 1.000000 -4.000000
v -4.229840 1.176786 -4.000000
v -4.229840 1.176786 -2.012801
v -1.000000 3.823774 1.000000
v -1.000000 3.823774 -1.000000
v -2.101578 4.000124 1.000000
v -2.101578 4.000124 -1.000000
v -2.101578 3.926527 1.000000
v -2.101578 3.926527 -1.000000
vt 0.302560 0.150921
vt 0.344615 0.150921
vt 0.344615 0.192976
vt 0.326815 0.191803
vt 0.115112 0.254503
vt 0.093993 0.254503
vt 0.093993 0.212265
vt 0.104552 0.212265
vt 0.115112 0.212265
vt 0.304349 0.110251
vt 0.344615 0.108490
vt 0.344615 0.150545
vt 0.302560 0.150545
vt 0.265246 0.324918
vt 0.265246 0.282680
vt 0.307484 0.282680
vt 0.307484 0.324918
vt 0.042803 0.268085
vt 0.085041 0.268085
vt 0.085041 0.310323
vt 0.042803 0.310323
vt 0.023154 0.222799
vt 0.046119 0.201866
vt 0.046119 0.201866
vt 0.023154 0.222799
vt 0.302183 0.108490
vt 0.302091 0.180507
vt 0.280626 0.155433
vt 0.283703 0.140430
vt 0.253128 0.208591
vt 0.253128 0.187472
vt 0.295365 0.187472
vt 0.295365 0.208591
vt 0.085041 0.331819
vt 0.042803 0.331819
vt 0.042803 0.310700
vt 0.085041 0.310700
vt 0.264869 0.292733
vt 0.192334 0.297564
vt 0.214507 0.269385
vt 0.238622 0.271025
vt 0.276772 0.042803
vt 0.319009 0.042803
vt 0.319009 0.085041
vt 0.276772 0.085041
vt 0.319009 0.042426
vt 0.276772 0.042426
vt 0.276772 0.000188
vt 0.319009 0.000188
vt 0.276772 0.106536
vt 0.276772 0.085417
vt 0.319009 0.085417
vt 0.319009 0.106536
vt 0.192334 0.115529
vt 0.252751 0.108490
vt 0.222430 0.162229
vt 0.221523 0.163297
vt 0.000188 0.331819
vt 0.000188 0.310700
vt 0.042426 0.310700
vt 0.042426 0.331819
vt 0.000188 0.310323
vt 0.000188 0.268085
vt 0.042426 0.268085
vt 0.042426 0.310323
vt 0.273041 0.004526
vt 0.272066 0.044784
vt 0.238889 0.025856
vt 0.238220 0.025249
vt 0.210436 0.105919
vt 0.203311 0.054395
vt 0.196185 0.002871
vt 0.203282 0.048651
vt 0.273040 0.100634
vt 0.236852 0.026005
vt 0.237908 0.026592
vt 0.082252 0.146978
vt 0.061143 0.085037
vt 0.071970 0.079070
vt 0.120668 0.135015
vt 0.047686 0.192603
vt 0.051948 0.198119
vt 0.041857 0.196350
vt 0.000528 0.127671
vt 0.013592 0.044981
vt 0.084664 0.246590
vt 0.084664 0.267709
vt 0.000188 0.267709
vt 0.000188 0.246590
vt 0.000188 0.243732
vt 0.000188 0.148256
vt 0.218582 0.245486
vt 0.242697 0.247126
vt 0.192334 0.223778
vt 0.264869 0.218947
vt 0.271608 0.154300
vt 0.274685 0.139297
vt 0.253128 0.186240
vt 0.253220 0.114223
vt 0.223562 0.163762
vt 0.222656 0.164830
vt 0.192334 0.218570
vt 0.252751 0.211531
vt 0.115112 0.254879
vt 0.115112 0.297117
vt 0.093993 0.297117
vt 0.093993 0.254879
vt 0.104552 0.254879
vt 0.265246 0.218947
vt 0.307484 0.218947
vt 0.307484 0.282303
vt 0.265246 0.282303
vt 0.030854 0.026235
vt 0.120668 0.000188
vt 0.192334 0.297941
vt 0.625000 0.500000
vt 0.234572 0.340179
vt 0.192334 0.340179
vt 0.093616 0.150737
vt 0.093616 0.246213
vt 0.072782 0.222166
vt 0.208730 0.204858
vt 0.179619 0.247284
vt 0.179619 0.247284
vt 0.208730 0.204858
vt 0.237841 0.162433
vt 0.152215 0.159092
vt 0.093993 0.212265
vt 0.152215 0.159092
vt 0.104552 0.212265
vt 0.203311 0.054395
vt 0.196185 0.002871
vt 0.072782 0.222166
vt 0.051948 0.198119
vn -1.0000 0.0000 0.0000
vn 0.0000 0.0000 -1.0000
vn 1.0000 0.0000 0.0000
vn 0.0000 0.0000 1.0000
vn 0.0000 -1.0000 0.0000
vn 0.0000 1.0000 0.0000
vn -0.3559 0.8641 0.3559
vn 0.0001 1.0000 0.0000
vn -0.0929 -0.9957 0.0000
usemtl None
s off
f 1/1/1 10/2/1 43/3/1 2/4/1
f 45/5/2 20/6/2 9/7/2 52/8/2 44/9/2
f 12/10/3 8/11/3 11/12/3 3/13/3
f 3/14/4 11/15/4 10/16/4 1/17/4
f 2/18/5 12/19/5 3/20/5 1/21/5
f 59/22/4 29/23/4 61/24/4 63/25/4
f 11/26/5 8/27/5 35/28/5 36/29/5
f 11/30/3 5/31/3 6/32/3 14/33/3
f 15/34/4 14/35/4 6/36/4 16/37/4
f 42/38/2 17/39/2 34/40/2 32/41/2
f 5/42/6 42/43/6 16/44/6 6/45/6
f 10/46/5 11/47/5 14/48/5 15/49/5
f 17/50/1 7/51/1 18/52/1 19/53/1
f 15/54/3 16/55/3 39/56/3 38/57/3
f 42/58/2 10/59/2 7/60/2 17/61/2
f 10/62/5 15/63/5 18/64/5 7/65/5
f 20/66/3 21/67/3 26/68/3 24/69/3
f 43/70/5 53/71/5 9/72/5 22/73/5 21/67/5 20/66/5 8/74/5
f 23/75/5 24/69/5 26/68/5 25/76/5
f 9/72/2 20/66/2 24/69/2 23/75/2
f 21/67/4 22/73/4 25/76/4 26/68/4
f 22/73/1 9/72/1 23/75/1 25/76/1
f 28/77/3 47/78/3 46/79/3 27/80/3
f 30/81/6 48/82/6 29/23/6 49/83/6
f 8/84/5 20/85/5 47/78/5 28/77/5
f 13/86/4 8/87/4 28/88/4 27/89/4
f 42/90/4 5/91/4 49/83/4 29/23/4 59/22/4
f 34/40/6 33/92/6 31/93/6
f 19/94/4 16/95/4 31/93/4 33/92/4
f 17/39/1 19/94/1 33/92/1 34/40/1
f 16/95/3 42/38/3 32/41/3 31/93/3
f 36/29/3 35/28/3 37/96/3 50/97/3
f 8/27/2 13/98/2 37/96/2 35/28/2
f 5/99/4 11/26/4 36/29/4 50/97/4
f 38/57/4 39/56/4 41/100/4 40/101/4
f 18/102/5 15/54/5 38/57/5 40/101/5
f 16/55/6 19/103/6 41/100/6 39/56/6
f 19/103/1 18/102/1 40/101/1 41/100/1
f 43/104/1 10/105/1 42/106/1 4/107/1 51/108/1
f 4/109/6 13/110/6 45/111/6 44/112/6
f 45/113/6 13/114/6 27/80/6 46/79/6
f 20/85/2 45/113/2 46/79/2 47/78/2
f 43/115/2 8/116/2 12/117/2 2/118/2
f 13/119/2 4/120/2 60/121/2 48/82/2 30/81/2
f 5/91/3 13/119/3 30/81/3 49/83/3
f 5/99/6 50/97/6 37/96/6 13/98/6
f 54/122/6 52/123/6 57/124/6 58/125/6
f 4/109/1 44/112/1 52/123/1 54/122/1 51/126/1
f 51/126/1 54/122/1 53/127/1 43/70/1
f 58/125/1 57/124/1 56/128/1 55/129/1
f 53/127/4 54/122/4 58/125/4 55/129/4
f 52/8/2 9/7/2 56/128/2 57/130/2
f 9/72/5 53/71/5 55/131/5 56/132/5
f 4/120/1 42/90/1 59/22/1 60/121/1
f 31/93/7 32/41/7 34/40/7
f 64/133/1 63/25/1 61/24/1 62/134/1
f 48/82/2 60/121/2 64/133/2 62/134/2
f 29/23/8 48/82/8 62/134/8 61/24/8
f 60/121/9 59/22/9 63/25/9 64/133/9
